<?xml version="1.0" standalone="no"?>
<!DOCTYPE svg PUBLIC "-//W3C//DTD SVG 20010904//EN"
 "http://www.w3.org/TR/2001/REC-SVG-20010904/DTD/svg10.dtd">
<svg version="1.0" xmlns="http://www.w3.org/2000/svg"
 width="182.000000pt" height="182.000000pt" viewBox="0 0 182.000000 182.000000"
 preserveAspectRatio="xMidYMid meet">
<metadata>
Created by potrace 1.14, written by Peter Selinger 2001-2017
</metadata>
<g transform="translate(0.000000,182.000000) scale(0.100000,-0.100000)"
fill="#000000" stroke="none">
<path d="M230 1391 l0 -181 178 0 179 0 -9 57 c-24 151 -150 276 -300 298
l-48 7 0 -181z"/>
<path d="M690 1391 l0 -181 181 0 182 0 -5 49 c-6 64 -48 148 -99 201 -47 49
-144 97 -212 106 l-47 7 0 -182z"/>
<path d="M1150 1391 l0 -181 185 0 185 0 -6 43 c-9 65 -58 162 -106 210 -53
52 -135 93 -206 103 l-52 7 0 -182z"/>
<path d="M230 935 l0 -185 181 0 182 0 -6 51 c-12 102 -75 200 -165 258 -42
26 -143 61 -179 61 -10 0 -13 -41 -13 -185z"/>
<path d="M690 935 l0 -185 181 0 181 0 -4 53 c-8 98 -82 208 -177 264 -38 23
-133 52 -168 53 -10 0 -13 -44 -13 -185z"/>
<path d="M230 463 l0 -183 181 0 182 0 -6 52 c-18 150 -154 287 -304 307 l-53
8 0 -184z"/>
</g>
</svg>
